<?xml version="1.0" standalone="no"?>
<!DOCTYPE svg PUBLIC "-//W3C//DTD SVG 20010904//EN"
 "http://www.w3.org/TR/2001/REC-SVG-20010904/DTD/svg10.dtd">
<svg version="1.0" xmlns="http://www.w3.org/2000/svg"
 width="1080.000000pt" height="1080.000000pt" viewBox="0 0 1080.000000 1080.000000"
 preserveAspectRatio="xMidYMid meet">
<metadata>
Created by potrace 1.14, written by Peter Selinger 2001-2017
</metadata>
<g transform="translate(0.000000,1080.000000) scale(0.100000,-0.100000)"
fill="#000000" stroke="none">
<path d="M5099 10795 c-2 -1 -51 -6 -109 -9 -58 -4 -116 -8 -130 -10 -14 -3
-54 -7 -90 -11 -36 -4 -74 -9 -85 -11 -11 -2 -42 -6 -70 -9 -27 -3 -57 -8 -65
-10 -8 -2 -35 -7 -60 -10 -113 -16 -393 -80 -585 -133 -692 -193 -1398 -569
-1970 -1049 -724 -606 -1299 -1423 -1605 -2278 -18 -49 -36 -99 -41 -110 -12
-29 -91 -288 -114 -375 -1 -3 -7 -32 -15 -65 -7 -33 -15 -64 -16 -70 -8 -27
-72 -346 -78 -385 -3 -25 -8 -58 -11 -75 -11 -70 -16 -113 -21 -165 -2 -30 -6
-64 -9 -75 -26 -123 -27 -925 -1 -1085 3 -14 7 -52 11 -85 7 -72 11 -101 31
-225 8 -52 17 -106 19 -120 2 -14 7 -36 10 -50 3 -14 10 -48 15 -77 16 -92 81
-344 127 -493 183 -591 465 -1147 832 -1639 73 -96 214 -273 256 -317 5 -6 45
-50 88 -97 115 -127 262 -271 417 -413 25 -22 106 -89 180 -148 165 -132 150
-121 235 -180 39 -28 72 -53 75 -56 3 -4 10 -9 15 -11 6 -2 57 -35 115 -73
473 -313 1048 -567 1601 -706 141 -36 305 -72 384 -86 17 -2 55 -9 85 -14 30
-6 75 -13 100 -16 25 -3 56 -7 70 -10 14 -2 52 -6 85 -10 33 -3 71 -8 85 -10
159 -25 923 -25 1080 0 14 2 52 7 85 11 107 12 139 16 195 25 60 10 96 16 150
25 42 6 100 19 195 41 39 9 80 18 91 20 34 6 214 54 269 71 28 8 86 26 130 40
44 13 88 28 97 34 10 5 23 9 29 9 10 0 239 86 294 110 11 5 67 30 125 56 357
157 722 374 1056 624 82 62 151 115 154 119 3 3 32 28 65 56 159 132 416 380
551 534 22 24 46 51 54 60 42 45 157 189 234 291 47 63 89 120 94 125 22 28
204 309 240 370 261 446 456 915 578 1387 15 56 28 109 29 118 2 8 4 15 5 15
2 0 3 4 34 164 15 74 29 150 32 169 3 19 7 43 9 52 2 10 6 40 10 67 4 26 8 59
10 73 32 231 40 373 40 720 -1 275 -8 466 -20 530 -2 10 -6 45 -10 77 -3 32
-8 78 -11 103 -5 43 -39 249 -49 300 -3 14 -8 41 -11 60 -3 19 -15 71 -26 115
-11 44 -22 91 -24 105 -3 14 -23 89 -44 167 -149 528 -377 1027 -688 1503 -99
150 -328 459 -372 500 -3 3 -30 34 -60 70 -30 36 -84 96 -120 134 -456 485
-943 852 -1515 1141 -320 162 -553 257 -861 350 -108 33 -392 107 -454 119
-288 53 -343 62 -425 72 -33 3 -68 8 -78 10 -10 2 -55 6 -100 10 -45 3 -93 8
-107 11 -30 5 -716 13 -721 8z"/>
</g>
</svg>
